<svg xmlns="http://www.w3.org/2000/svg" viewBox="0 0 24.74 35.5"><g id="Calque_2" data-name="Calque 2"><g id="Logo4"><path d="M.22,16.8l.48.42H7.31L12,21.47,7.33,26.31V21.63l-2.86,0-.11,9.45L0,35.5Z"/><path d="M1.75,11.89V7.22l.47.42H6v2.55L8.83,7.64H14l-5.67,5.1L13.09,17v5.09Z"/><path d="M13.39.42H24.26L24.74,0V4.67L20.48,8.5V4.25H17.65v6.66l0,6.58-4.25,4.32V.42Z"/><polygon points="1.75 13.38 1.75 12.18 7.15 17.01 5.78 17.01 1.75 13.38"/><path d="M18.34,10.94a1,1,0,0,0-.35.75v.88l6.73-6.08V5.22Z"/><polygon points="18 16.86 18 12.2 18.92 11.36 18.87 14.68 22.5 11.04 22.44 12.35 18 16.86"/><polygon points="7.33 27.97 12.91 22.27 12.15 21.59 7.33 26.63 7.33 27.97"/></g></g></svg>