<svg xmlns="http://www.w3.org/2000/svg" viewBox="0 0 89.17 8.64"><defs><style>.cls-1{fill:#33bbdb;}</style></defs><g id="Calque_2" data-name="Calque 2"><g id="Calque_1-2" data-name="Calque 1"><path d="M0,8.64V0H6.85A1.72,1.72,0,0,1,8.11.54a1.72,1.72,0,0,1,.53,1.25V4a1.72,1.72,0,0,1-.53,1.25,1.72,1.72,0,0,1-1.26.53h-5V8.64ZM2.26,3.92h4.5v-2H1.86V3.92Z"/><path d="M13.45,8.64V0H20.3a1.72,1.72,0,0,1,1.26.53,1.68,1.68,0,0,1,.53,1.25V4a1.68,1.68,0,0,1-.53,1.25,1.72,1.72,0,0,1-1.26.53h-.08L22.09,8v.64H20.17L17.78,5.8H15.31V8.64Zm2.26-4.72h4.5v-2h-4.9V3.92Z"/><path d="M27.36,8.64V0h8V1.87H29.25V3.38h4.9V5.26h-4.9V6.77h6.09V8.64Z"/><path class="cls-1" d="M45.25,8.64,40.25,0h2.16L46,6.28,49.66,0H51.8l-5,8.64Z"/><path d="M56.46,8.64V0H58.3V8.64Z"/><path d="M63.07,8.64V0h8V1.87H65V3.38h4.91V5.26H65V6.77h6.09V8.64Z"/><path d="M79.1,8.64,76,0h2l1.88,5.15L81.71,0h1.71l1.9,5.15L87.2,0h2L86,8.64H84.6l-2-5.56-2,5.56Z"/></g></g></svg>