<svg xmlns="http://www.w3.org/2000/svg" viewBox="0 0 42.6 18.77"><defs><style>.cls-1{fill:#12100b;}</style></defs><g id="Calque_2" data-name="Calque 2"><g id="Logo4"><path class="cls-1" d="M13.39,5.7l0,.63L18.1,11l.34,6.35-6.76.09L15,14.14l-2-2L6.19,18.74,0,18.77Z"/><path class="cls-1" d="M17.93,3.3,21.24,0l0,.63,2.67,2.68-1.8,1.8,3.81.2L29.62,9,22,8.58l.34,6.35-3.61,3.6Z"/><path class="cls-1" d="M34.28,3.43,42,11.12l.64,0-3.31,3.31-5.71-.31,3-3-2-2-4.71,4.72L25.2,18.49l-6.06.05,5.07-5Z"/><polygon class="cls-1" points="16.88 4.36 17.73 3.51 18.13 10.74 17.16 9.78 16.88 4.36"/><path class="cls-1" d="M30.34,14.36a1,1,0,0,0-.78.29l-.61.62,9.05.47.9-.9Z"/><polygon class="cls-1" points="25.91 18.31 29.21 15.02 30.45 15.07 28.07 17.39 33.21 17.38 32.24 18.27 25.91 18.31"/><polygon class="cls-1" points="10.51 18.62 18.49 18.54 18.43 17.52 11.46 17.67 10.51 18.62"/></g></g></svg>