<svg xmlns="http://www.w3.org/2000/svg" viewBox="0 0 42.48 19.07"><defs><style>.cls-1{fill:#fff;}.cls-2{fill:#f1860d;}</style></defs><g id="Calque_2" data-name="Calque 2"><g id="Logo4"><path class="cls-1" d="M13.2,5.81l0,.63L18,11.05l.42,6.34-6.75.19,3.26-3.35-2.07-2L6.19,19,0,19.07Z"/><path class="cls-1" d="M17.71,3.35,21,0l0,.63,2.71,2.64L21.94,5.1l3.81.15,3.73,3.62-7.62-.3.43,6.34-3.55,3.66Z"/><path class="cls-1" d="M34.06,3.25l7.79,7.57.63,0L39.23,14.2,33.51,14l3-3.05-2-2L29.8,13.73l-4.6,4.71-6.06.13,5-5.11Z"/><polygon class="cls-2" points="16.68 4.42 17.51 3.56 18.02 10.79 17.03 9.83 16.68 4.42"/><path class="cls-2" d="M30.27,14.23a1,1,0,0,0-.77.3l-.6.63L38,15.5l.89-.91Z"/><polygon class="cls-2" points="25.9 18.24 29.15 14.9 30.39 14.94 28.05 17.29 33.19 17.21 32.23 18.11 25.9 18.24"/><polygon class="cls-2" points="10.51 18.77 18.48 18.57 18.41 17.56 11.44 17.81 10.51 18.77"/></g></g></svg>